<svg id="Layer_1" viewBox="0 0 64 64" xmlns="http://www.w3.org/2000/svg" data-name="Layer 1"><path d="m22.79 44.745 2.803-5.949-5.015 2.452z"/><path d="m4 39.891v7.237l27.561-13.477c.02-.01.042-.008.063-.016.062-.026.125-.037.191-.05.064-.012.125-.027.188-.026.06 0 .118.014.179.025.069.013.135.025.199.052.02.008.04.006.06.016l27.561 13.477v-7.237l-28.002-29.233zm21.269-16.848-9.324 9.651c-.195.203-.457.306-.719.306-.25 0-.501-.094-.694-.281-.397-.383-.408-1.017-.024-1.413l9.324-9.651c.383-.396 1.019-.407 1.413-.024.397.383.408 1.017.024 1.413zm4.45-4.605-.776.803c-.196.203-.457.305-.719.305-.25 0-.501-.094-.695-.281-.396-.384-.407-1.017-.023-1.414l.776-.803c.384-.396 1.017-.406 1.414-.023.396.384.407 1.017.023 1.414z"/><path d="m43.422 41.248-5.015-2.452 2.803 5.949z"/><path d="m32 35.663-3.534 1.728-3.971 8.427h7.505 7.505l-3.971-8.427z"/></svg>