<?xml version="1.0" encoding="UTF-8"?>
<!-- Generator: Adobe Illustrator 24.1.0, SVG Export Plug-In . SVG Version: 6.00 Build 0)  -->
<svg xmlns="http://www.w3.org/2000/svg" xmlns:xlink="http://www.w3.org/1999/xlink" version="1.1" id="Capa_1" x="0px" y="0px" viewBox="0 0 599.827 599.827" style="enable-background:new 0 0 599.827 599.827;" xml:space="preserve" width="512" height="512">
<g>
	<g>
		<path d="M555.768,422.125v-48.992L343.478,216.529c0.648-41.274,0.595-83.026-0.708-125.594C340.395,40.641,320.915,0,299.913,0    c-20.995,0-40.475,40.641-42.849,90.935c-1.302,42.568-1.356,84.321-0.708,125.594L44.059,373.134v48.992l215.76-88.871    c2.709,66.227,6.021,131.851,8.404,197.849l-65.685,36.371v32.351l97.375-16.986l97.369,16.986v-32.351l-65.67-36.371    c2.374-65.998,5.678-131.622,8.404-197.849L555.768,422.125z"/>
		<g>
			<rect x="138.92" y="248.809" width="39.716" height="66.667"/>
			<rect x="421.191" y="248.809" width="39.716" height="66.667"/>
		</g>
	</g>
</g>















</svg>
