<svg id="Layer_1" enable-background="new 0 0 512 512" viewBox="0 0 512 512" xmlns="http://www.w3.org/2000/svg"><g clip-rule="evenodd" fill-rule="evenodd"><g fill="#40494c"><path d="m318.641 177.856c-8.571 7.688-9.831 16.763-10.335 25.838v52.558h10.335 10.335c0-17.519 0-35.039 0-52.558-.504-9.075-1.764-18.15-10.335-25.838z"/><path d="m405.735 192.224c-8.571 7.688-9.831 16.763-10.336 25.964v26.216h10.336 10.335c0-17.52 0-8.823 0-26.216-.63-9.2-1.764-18.275-10.335-25.964z"/><path d="m282.342 218.692 204.058 11.218v25.208l-204.058 35.417z"/></g><path d="m282.342 218.692 204.058 11.218v25.208l-14.116 2.395v-15.251l-189.942-5.672z" fill="#30373a"/><path d="m193.359 177.856c8.57 7.688 9.831 16.763 10.335 25.838v52.558c-3.403 0-6.933 0-10.335 0-3.403 0-6.933 0-10.336 0 0-17.519 0-35.039 0-52.558.504-9.075 1.765-18.15 10.336-25.838z" fill="#40494c"/><path d="m106.265 192.224c8.571 7.688 9.831 16.763 10.335 25.964v26.216c-3.403 0-6.806 0-10.335 0-3.403 0-6.806 0-10.335 0 0-17.52 0-8.823 0-26.216.63-9.2 1.764-18.275 10.335-25.964z" fill="#40494c"/><path d="m256 471.528h10.587c8.067-37.308 15.251-74.742 15.755-112.68 0-93.395 0-186.916 0-280.438-.378-19.536-3.781-37.812-26.342-48.399-22.561 10.587-25.964 28.863-26.342 48.399v280.438c.504 37.938 7.688 75.372 15.755 112.68z" fill="#30373a"/><path d="m236.464 425.901-66.297 17.142v23.191l75.246 5.294z" fill="#30373a"/><path d="m275.536 425.901 66.297 17.142v23.191l-75.246 5.294z" fill="#30373a"/><path d="m185.04 467.368 60.373 4.16-6.428-32.14-53.945 13.864z" fill="#40494c"/><path d="m326.96 467.368-60.373 4.16 6.428-32.14 53.945 13.864z" fill="#40494c"/><path d="m229.658 218.692-204.058 11.218v25.208l204.058 35.417z" fill="#40494c"/><path d="m229.658 218.692-204.058 11.218v25.208l14.116 2.395v-15.251l189.942-5.672z" fill="#30373a"/><path d="m256 416.322c3.151 0 5.672 2.521 5.672 5.672v54.449c0 3.025-2.521 5.546-5.672 5.546-3.151 0-5.672-2.52-5.672-5.546v-54.449c0-3.151 2.521-5.672 5.672-5.672z" fill="#40494c"/><path d="m256 79.419c8.318 0 15.125 6.806 15.125 15.125v35.543c0 8.318-6.806 15.125-15.125 15.125-8.319 0-15.125-6.806-15.125-15.125v-35.543c0-8.319 6.806-15.125 15.125-15.125z" fill="#40494c"/></g></svg>