<svg height="30" viewBox="0 0 29 30" width="29" xmlns="http://www.w3.org/2000/svg"><g transform="translate(-270 -200)"><g id="propeller-plane_1_" xmlns="http://www.w3.org/2000/svg" xmlns:xlink="http://www.w3.org/1999/xlink"><path d="m271 214h11v1h-11z" opacity=".5"/><path d="m287 214h11v1h-11z" opacity=".5"/><path d="m279 225v2h3.835l-.439-2.85z"/><path d="m286.166 227h3.834v-2l-3.396-.85z"/><path d="m297 210h-10v-4h-2v-1h3v-1h-3v-1h-1v1h-3v1h3v1h-2v4h-10c-1 0-2 0-2 1v3h1 11v1l2 13h1l2-13v-1h11 1v-3c0-1-1-1-2-1zm-13-2h1v2h-1z"/></g></g></svg>