<svg id="Layer_1" viewBox="0 0 64 64" xmlns="http://www.w3.org/2000/svg" data-name="Layer 1"><path d="m64 38.38v-4l-8.15-4.38c-.1-2.24-.8-4-1.67-4-.63 0-1.17.93-1.46 2.3l-7.57-4.07c-.17-2-.84-3.57-1.66-3.57-.57 0-1.08.77-1.38 1.94l-5.73-3.07c-.29-9.53-1.55-16.98-4.38-17.12-2.83.14-4.09 7.58-4.38 17.12l-5.73 3.07c-.3-1.17-.81-1.94-1.38-1.94-.82 0-1.49 1.53-1.66 3.57l-7.57 4.07c-.28-1.37-.83-2.3-1.46-2.3-.82 0-1.57 1.74-1.67 4l-8.15 4.35v4l27.81-4.07c.31 6.43.88 12.72 1.58 17.64l-8.19 7.24v2.34l9.54-2.41c.42 1.49.85 2.39 1.26 2.5.41-.11.84-1 1.26-2.5l9.54 2.41v-2.34l-8.19-7.16c.7-4.92 1.27-11.21 1.58-17.64z" fill="rgb(0,0,0)"/></svg>